<svg width="19" height="20" viewBox="0 0 19 20" fill="none" xmlns="http://www.w3.org/2000/svg">
<path d="M9 6.875C9 6.21196 9.26339 5.57607 9.73223 5.10723C10.2011 4.63839 10.837 4.375 11.5 4.375H16.5C16.6658 4.375 16.8247 4.44085 16.9419 4.55806C17.0592 4.67527 17.125 4.83424 17.125 5V15C17.125 15.1658 17.0592 15.3247 16.9419 15.4419C16.8247 15.5592 16.6658 15.625 16.5 15.625H11.5C10.837 15.625 10.2011 15.8884 9.73223 16.3572C9.26339 16.8261 9 17.462 9 18.125" stroke="#8E9BAA" stroke-width="2" stroke-linecap="round" stroke-linejoin="round"/>
<path d="M0.875 15C0.875 15.1658 0.940848 15.3247 1.05806 15.4419C1.17527 15.5592 1.33424 15.625 1.5 15.625H6.5C7.16304 15.625 7.79893 15.8884 8.26777 16.3572C8.73661 16.8261 9 17.462 9 18.125V6.875C9 6.21196 8.73661 5.57607 8.26777 5.10723C7.79893 4.63839 7.16304 4.375 6.5 4.375H1.5C1.33424 4.375 1.17527 4.44085 1.05806 4.55806C0.940848 4.67527 0.875 4.83424 0.875 5V15Z" stroke="#8E9BAA" stroke-width="2" stroke-linecap="round" stroke-linejoin="round"/>
</svg>
