<svg width="22" height="23" viewBox="0 0 22 23" fill="none" xmlns="http://www.w3.org/2000/svg">
<path d="M18.25 6.75H1.75C1.33579 6.75 1 7.08579 1 7.5V19.5C1 19.9142 1.33579 20.25 1.75 20.25H18.25C18.6642 20.25 19 19.9142 19 19.5V7.5C19 7.08579 18.6642 6.75 18.25 6.75Z" stroke="#8E9BAA" stroke-width="2" stroke-linecap="round" stroke-linejoin="round"/>
<path d="M13.75 6.75V5.25C13.75 4.85218 13.592 4.47064 13.3107 4.18934C13.0294 3.90804 12.6478 3.75 12.25 3.75H7.75C7.35218 3.75 6.97064 3.90804 6.68934 4.18934C6.40804 4.47064 6.25 4.85218 6.25 5.25V6.75" stroke="#8E9BAA" stroke-width="2" stroke-linecap="round" stroke-linejoin="round"/>
<path d="M19 11.8406C16.2646 13.4226 13.1599 14.2538 10 14.25C6.83955 14.2582 3.73363 13.4268 1 11.8406" stroke="#8E9BAA" stroke-width="2" stroke-linecap="round" stroke-linejoin="round"/>
<path d="M8.875 11.25H11.125" stroke="#8E9BAA" stroke-width="2" stroke-linecap="round" stroke-linejoin="round"/>
</svg>
