<svg width="24" height="24" viewBox="0 0 24 24" fill="none" xmlns="http://www.w3.org/2000/svg">
<path d="M3.19687 13.1906C2.35627 11.7744 2.06163 10.1 2.36829 8.48189C2.67496 6.86379 3.56182 5.41331 4.86232 4.40288C6.16283 3.39244 7.78749 2.89156 9.43119 2.99432C11.0749 3.09707 12.6245 3.79639 13.7891 4.96092C14.9536 6.12546 15.6529 7.67509 15.7557 9.31879C15.8584 10.9625 15.3575 12.5871 14.3471 13.8877C13.3367 15.1882 11.8862 16.075 10.2681 16.3817C8.64999 16.6883 6.97559 16.3937 5.55937 15.5531L3.225 16.2187C3.12882 16.2458 3.02717 16.2467 2.9305 16.2214C2.83384 16.1962 2.74565 16.1456 2.675 16.075C2.60436 16.0043 2.5538 15.9161 2.52853 15.8195C2.50327 15.7228 2.50421 15.6212 2.53125 15.525L3.19687 13.1906Z" stroke="#697A8D" stroke-width="1.5" stroke-linecap="round" stroke-linejoin="round"/>
<path d="M8.63437 16.4906C8.96479 17.4327 9.50033 18.2896 10.2023 18.9994C10.9043 19.7093 11.7552 20.2543 12.6935 20.5952C13.6318 20.9361 14.6341 21.0643 15.628 20.9705C16.6219 20.8768 17.5826 20.5634 18.4406 20.0531V20.0531L20.775 20.7188C20.8712 20.7458 20.9728 20.7468 21.0695 20.7215C21.1662 20.6962 21.2543 20.6457 21.325 20.575C21.3956 20.5044 21.4462 20.4162 21.4715 20.3195C21.4967 20.2229 21.4958 20.1212 21.4687 20.025L20.8031 17.6906C21.3974 16.6932 21.7239 15.5591 21.751 14.3983C21.7782 13.2376 21.505 12.0895 20.958 11.0653C20.4111 10.0411 19.6088 9.1756 18.629 8.5526C17.6492 7.92961 16.5251 7.57027 15.3656 7.5094" stroke="#697A8D" stroke-width="1.5" stroke-linecap="round" stroke-linejoin="round"/>
</svg>
