<svg width="24" height="24" viewBox="0 0 24 24" fill="none" xmlns="http://www.w3.org/2000/svg">
<path d="M4.25626 16.5938C3.13959 14.7098 2.74899 12.483 3.1578 10.3314C3.5666 8.17982 4.74669 6.25145 6.47652 4.90831C8.20636 3.56516 10.367 2.8996 12.5527 3.03658C14.7385 3.17357 16.7991 4.10367 18.3477 5.65227C19.8963 7.20088 20.8264 9.26149 20.9634 11.4473C21.1004 13.633 20.4349 15.7937 19.0917 17.5235C17.7486 19.2533 15.8202 20.4334 13.6686 20.8422C11.5171 21.251 9.29025 20.8604 7.40626 19.7438V19.7438L4.29376 20.625C4.16624 20.6623 4.03103 20.6646 3.90231 20.6317C3.77359 20.5988 3.6561 20.5318 3.56215 20.4379C3.4682 20.3439 3.40126 20.2264 3.36833 20.0977C3.33541 19.969 3.33771 19.8338 3.37501 19.7063L4.25626 16.5938Z" stroke="#697A8D" stroke-width="1.5" stroke-linecap="round" stroke-linejoin="round"/>
<path d="M9 10.5H15" stroke="#697A8D" stroke-width="1.5" stroke-linecap="round" stroke-linejoin="round"/>
<path d="M9 13.5H15" stroke="#697A8D" stroke-width="1.5" stroke-linecap="round" stroke-linejoin="round"/>
</svg>
