<svg width="53" height="49" viewBox="0 0 53 49" fill="none" xmlns="http://www.w3.org/2000/svg">
<path d="M43.5922 8.72554L29.6647 5.41078C28.7476 5.24228 28.2227 5.62347 27.9576 6.30576L27.7504 6.85822C28.278 7.78912 27.8029 9.41888 27.0432 9.86913C27.22 11.5983 27.1758 12.4325 26.988 12.6646C26.8001 12.8966 26.3609 13.0071 25.8389 12.9242C25.8932 13.288 25.9669 13.6485 26.0599 14.0043C26.2542 14.021 26.4471 14.0514 26.6372 14.0955L29.4879 6.65105L42.8795 9.90228L38.656 21.957L34.7528 20.783C34.4517 21.1725 34.1258 21.5868 33.7722 22.0205L38.6808 23.4956C39.4322 23.7221 40.1531 23.479 40.4874 22.573L44.6308 10.6315C44.9236 9.81112 44.8435 9.03216 43.5922 8.72554ZM42.0619 16.4904C42.0452 16.5529 42.0159 16.6114 41.9757 16.6621C41.9354 16.7128 41.8853 16.7547 41.8282 16.7852C41.7711 16.8158 41.7084 16.8342 41.6439 16.8395C41.5794 16.8447 41.5144 16.8367 41.4532 16.8158C41.3919 16.795 41.3356 16.7617 41.2877 16.7182C41.2398 16.6746 41.2014 16.6217 41.1748 16.5627C41.1482 16.5037 41.134 16.4399 41.1331 16.3752C41.1323 16.3104 41.1447 16.2462 41.1696 16.1865C41.1863 16.124 41.2157 16.0655 41.2559 16.0148C41.2961 15.9641 41.3463 15.9222 41.4033 15.8917C41.4604 15.8611 41.5231 15.8427 41.5877 15.8374C41.6522 15.8322 41.7171 15.8402 41.7783 15.8611C41.8396 15.8819 41.8959 15.9152 41.9438 15.9587C41.9917 16.0022 42.0301 16.0552 42.0567 16.1142C42.0833 16.1732 42.0975 16.237 42.0984 16.3017C42.0993 16.3664 42.0868 16.4307 42.0619 16.4904Z" fill="#3B29AB"/>
<path d="M36.0045 17.8715C36.1009 18.2068 36.1346 18.5571 36.1039 18.9046C35.1295 20.3312 34.0754 21.7016 32.9466 23.0094C31.6345 24.5342 30.4799 24.6668 29.1236 23.3271C28.2949 22.4984 26.1154 19.4985 25.5326 18.5815C25.6616 19.589 25.7207 20.6043 25.7094 21.62C25.6818 21.6946 25.6293 21.8465 25.6293 21.8465C23.6266 21.4377 21.4085 21.5482 19.6075 22.399C19.5508 21.0936 19.3901 19.7949 19.1268 18.5152C18.4364 19.2965 17.6983 20.0345 16.917 20.725C16.4916 20.8714 16.0883 21.0012 15.812 21.1172C15.7402 21.8216 15.6214 24.9154 15.6076 26.2441C15.6076 26.0562 15.3314 25.838 14.6878 25.6916C13.9091 25.5499 13.116 25.5035 12.326 25.5535C11.4973 25.6087 11.1438 25.7911 11.1189 25.9817C11.1382 24.5103 11.2405 23.0412 11.4255 21.5813C11.7017 19.4847 11.8537 18.819 14.0276 17.4379C16.5942 15.8385 19.444 14.747 22.4222 14.2225C23.6227 14.0119 24.8432 13.9387 26.0602 14.0043C27.6098 14.1397 28.3612 14.8883 30.8307 18.482C31.2671 17.8992 32.6566 16.3688 33.0599 15.9131C33.988 15.6617 35.5874 16.4462 36.0045 17.8715Z" fill="#FFD0C7"/>
<path d="M36.5923 46.5995C36.4321 45.6465 29.1728 43.4919 28.9297 44.2709C28.9905 43.8455 29.2418 41.887 29.3164 41.4257C30.3207 41.3854 31.3261 41.467 32.3107 41.6688C32.2867 42.0493 32.3983 42.4261 32.6256 42.7323C33.6394 44.1134 36.631 45.2183 36.5923 46.5995Z" fill="#FFD0C7"/>
<path d="M9.68214 43.0969C9.44922 43.1444 9.23251 43.2512 9.05297 43.4071C8.87344 43.5629 8.73716 43.7624 8.65733 43.9863C8.45735 44.5204 8.32376 45.077 8.25956 45.6437C8.07172 46.9337 7.72643 48.4944 6.87841 48.859C7.78997 48.1988 7.30933 40.6909 6.38672 40.6909C7.01652 40.55 7.43363 40.4147 9.08273 40.0417C9.4417 41.0223 9.64398 42.0533 9.68214 43.0969Z" fill="#FFD0C7"/>
<path d="M39.2502 10.5348C40.9794 11.9326 39.4352 14.4269 37.6895 13.8966C37.5762 13.6701 37.4326 13.3994 37.253 13.0679C37.2387 12.7696 37.1514 12.4793 36.9989 12.2226C36.7367 12.1103 36.4554 12.0493 36.1702 12.0431C36.0763 10.6288 37.9381 9.47136 39.2502 10.5348Z" fill="#3B29AB"/>
<path d="M33.4243 12.2171L33.8414 12.6673C33.5651 13.2944 33.3276 13.6618 33.3248 13.8607C33.3248 14.3606 33.474 14.8882 33.4215 15.8689C33.2986 15.8661 33.176 15.88 33.0569 15.9103L32.5541 16.4904C31.5459 16.8163 29.5985 16.0014 29.5156 14.0043C29.4189 11.7061 31.7089 10.5459 33.0707 11.1287L33.4243 12.2171Z" fill="#3B29AB"/>
<path d="M5.12734 37.8595L2.71585 36.1718L4.40361 33.7603C4.41827 33.7398 4.42417 33.7143 4.42003 33.6894C4.41588 33.6645 4.40203 33.6423 4.38152 33.6277C4.361 33.613 4.33551 33.6071 4.31064 33.6113C4.28578 33.6154 4.26358 33.6293 4.24893 33.6498L2.5584 36.0613L0.14967 34.3735C0.139398 34.3662 0.127771 34.3611 0.115478 34.3584C0.103185 34.3557 0.0904779 34.3555 0.0781103 34.3579C0.0657427 34.3602 0.0539671 34.365 0.043483 34.3719C0.0329988 34.3789 0.0240198 34.3879 0.0170792 34.3984C0.00284475 34.419 -0.00280748 34.4444 0.00131581 34.4691C0.0054391 34.4939 0.0190153 34.516 0.0391777 34.531L2.45067 36.2187L0.762901 38.6275C0.752637 38.6416 0.746505 38.6583 0.745192 38.6756C0.743879 38.693 0.747437 38.7105 0.755467 38.7259C0.763498 38.7414 0.775683 38.7544 0.790657 38.7633C0.805631 38.7723 0.822802 38.7769 0.840245 38.7766C0.855649 38.7766 0.870855 38.7732 0.884726 38.7665C0.898598 38.7598 0.910777 38.75 0.920352 38.7379L2.60536 36.3265C5.25164 38.18 5.03342 38.0363 5.06657 38.0363C5.08926 38.0417 5.11314 38.0385 5.13357 38.0272C5.15401 38.016 5.16952 37.9975 5.17711 37.9755C5.18469 37.9534 5.18379 37.9293 5.17459 37.9079C5.16539 37.8865 5.14855 37.8692 5.12734 37.8595Z" fill="#3B29AB"/>
<path d="M37.4434 26.6612C37.4414 26.6487 37.4369 26.6369 37.4302 26.6262C37.4236 26.6155 37.4148 26.6063 37.4045 26.5991C37.3942 26.5919 37.3825 26.5868 37.3702 26.5842C37.3579 26.5816 37.3452 26.5814 37.3329 26.5838L35.7501 26.8601L35.4739 25.2745C35.4691 25.2497 35.455 25.2278 35.4343 25.2134C35.4137 25.1989 35.3882 25.1931 35.3634 25.1971C35.3509 25.1991 35.339 25.2036 35.3284 25.2103C35.3177 25.217 35.3085 25.2257 35.3013 25.236C35.2941 25.2463 35.289 25.258 35.2864 25.2703C35.2838 25.2826 35.2836 25.2953 35.286 25.3076L35.5622 26.8932L33.9767 27.1694C33.9518 27.1716 33.9288 27.1836 33.9127 27.2028C33.8966 27.222 33.8889 27.2467 33.8911 27.2716C33.8932 27.2965 33.9053 27.3196 33.9244 27.3356C33.9436 27.3517 33.9683 27.3595 33.9933 27.3573C34.0154 27.3573 34.0098 27.3573 35.5954 27.081L35.8716 28.6638C35.8755 28.686 35.887 28.7062 35.9041 28.7208C35.9213 28.7355 35.943 28.7436 35.9655 28.7439C35.9795 28.7438 35.9933 28.7405 36.0059 28.7345C36.0185 28.7285 36.0297 28.7198 36.0386 28.709C36.0476 28.6982 36.054 28.6856 36.0576 28.6721C36.0612 28.6586 36.0619 28.6445 36.0595 28.6307L35.7832 27.0479L37.366 26.7717C37.3784 26.7697 37.3903 26.7652 37.401 26.7585C37.4117 26.7518 37.4209 26.7431 37.4281 26.7328C37.4353 26.7225 37.4404 26.7108 37.443 26.6985C37.4456 26.6862 37.4458 26.6735 37.4434 26.6612Z" fill="#3B29AB"/>
<path d="M7.78502 18.9295C7.17258 18.9295 6.5739 18.7479 6.06467 18.4076C5.55545 18.0674 5.15856 17.5837 4.92419 17.0179C4.68982 16.4521 4.6285 15.8295 4.74798 15.2288C4.86746 14.6282 5.16237 14.0764 5.59543 13.6433C6.02849 13.2103 6.58024 12.9154 7.18091 12.7959C7.78158 12.6764 8.4042 12.7377 8.97001 12.9721C9.53583 13.2065 10.0194 13.6034 10.3597 14.1126C10.7 14.6218 10.8816 15.2205 10.8816 15.8329C10.8808 16.654 10.5544 17.4412 9.9738 18.0217C9.39324 18.6023 8.60605 18.9287 7.78502 18.9295ZM7.78502 12.927C7.2095 12.9264 6.64675 13.0966 6.16799 13.416C5.68923 13.7354 5.31599 14.1897 5.09549 14.7213C4.875 15.2529 4.81716 15.838 4.92931 16.4025C5.04145 16.967 5.31854 17.4855 5.72549 17.8925C6.13245 18.2994 6.65098 18.5765 7.21547 18.6886C7.77997 18.8008 8.36504 18.743 8.89665 18.5225C9.42825 18.302 9.8825 17.9287 10.2019 17.45C10.5213 16.9712 10.6915 16.4085 10.691 15.8329C10.6902 15.0625 10.3838 14.3237 9.83902 13.7789C9.29421 13.2341 8.5555 12.9277 7.78502 12.927Z" fill="#3B29AB"/>
<path d="M20.7506 40.2462C20.7262 40.2402 20.7049 40.2253 20.691 40.2042C20.6772 40.1832 20.6718 40.1577 20.6761 40.1329C20.6814 40.1081 20.6962 40.0864 20.7174 40.0725C20.7386 40.0585 20.7644 40.0534 20.7893 40.0583C23.2117 40.5446 25.6808 40.7596 28.1508 40.6992C28.1632 40.6988 28.1755 40.7009 28.187 40.7053C28.1985 40.7097 28.2091 40.7163 28.2181 40.7247C28.227 40.7332 28.2343 40.7434 28.2393 40.7546C28.2444 40.7659 28.2472 40.778 28.2475 40.7904C28.2476 40.8158 28.2378 40.8403 28.2204 40.8588C28.2029 40.8773 28.179 40.8884 28.1536 40.8898C25.6697 40.9505 23.1868 40.7346 20.7506 40.2462Z" fill="#3B29AB"/>
<path d="M33.3606 40.26C33.3556 40.2355 33.3602 40.21 33.3736 40.1889C33.387 40.1678 33.4081 40.1527 33.4324 40.1467C46.092 37.3375 51.3349 21.968 43.4236 9.94648C40.2856 5.16493 32.9794 1.13474 26.7918 0.759062C21.223 0.422061 18.2701 2.05734 18.016 5.629C17.7618 9.20066 15.61 9.88571 12.1544 8.85813C8.69872 7.83055 5.19612 8.62334 3.03876 10.9243C0.317897 13.8192 -0.0439649 18.529 2.02224 24.1834C4.23208 30.2466 8.40868 34.9398 14.0907 37.7601C14.1134 37.7711 14.1309 37.7907 14.1391 37.8145C14.1474 37.8383 14.1459 37.8645 14.1349 37.8872C14.1239 37.9099 14.1044 37.9273 14.0806 37.9356C14.0567 37.9439 14.0306 37.9424 14.0079 37.9314C8.27885 35.089 4.06358 30.3571 1.85374 24.2497C-0.966574 16.5152 1.30128 12.4961 2.9117 10.789C5.12154 8.43274 8.71253 7.62338 12.2289 8.67029C15.5409 9.66749 17.5795 9.10398 17.8254 5.61519C18.1016 1.92199 21.1097 0.223175 26.8029 0.568463C33.0429 0.949661 40.4155 5.02129 43.5838 9.84151C51.5945 22.0343 46.1997 37.5087 33.4738 40.3318C33.4617 40.3347 33.449 40.335 33.4367 40.333C33.4244 40.3309 33.4126 40.3264 33.4021 40.3197C33.3916 40.313 33.3825 40.3043 33.3753 40.294C33.3682 40.2838 33.3632 40.2722 33.3606 40.26Z" fill="#3B29AB"/>
<path d="M11.6658 2.95508C9.13825 2.26175 9.32057 2.30594 9.29018 2.31147C-0.300532 4.07934 3.12196 3.38877 2.3568 3.53517C2.21025 3.5611 2.07024 3.61565 1.94477 3.6957C1.8193 3.77574 1.71083 3.87972 1.62554 4.00168C1.45329 4.24801 1.38596 4.55267 1.43834 4.84864C1.49072 5.14462 1.65853 5.40766 1.90485 5.5799C2.15118 5.75215 2.45584 5.81949 2.75181 5.76711C10.2294 4.45225 9.68519 4.55722 9.7432 4.51302L11.6961 3.13187C11.7126 3.12174 11.7256 3.10694 11.7335 3.08936C11.7414 3.07178 11.7439 3.05222 11.7407 3.03322C11.7374 3.01421 11.7285 2.99661 11.7152 2.98269C11.7018 2.96876 11.6846 2.95915 11.6658 2.95508ZM4.30975 5.31133L3.98104 3.4523L9.22941 2.52693L9.55812 4.38596L4.30975 5.31133ZM3.13301 5.5185L2.80706 3.65947L3.79044 3.48545L4.11915 5.34448L3.13301 5.5185ZM2.7159 5.59032C2.47417 5.62304 2.22916 5.56099 2.03214 5.41715C1.83513 5.27332 1.70138 5.05885 1.65891 4.81864C1.61644 4.57843 1.66852 4.33111 1.80427 4.12843C1.94002 3.92576 2.1489 3.78345 2.38719 3.73129L2.61922 3.69262L2.94517 5.55165L2.7159 5.59032ZM9.73215 4.29756L9.42277 2.54903L11.4199 3.10149L9.73215 4.29756Z" fill="#3B29AB"/>
<path d="M47.6504 6.13727C47.4888 5.22882 47.2552 4.33469 46.9516 3.46336C47.5897 2.05182 46.5897 0.576754 45.1561 0.00771996C45.139 0.000317229 45.12 -0.00182466 45.1017 0.00156721C45.0834 0.00495907 45.0664 0.0137312 45.0531 0.0267662C45.0398 0.0398012 45.0306 0.0565093 45.0268 0.0747622C45.023 0.0930152 45.0247 0.111987 45.0318 0.129261C45.4931 1.31429 44.3246 2.50484 45.5566 3.72025C45.5726 4.64618 45.6584 5.56957 45.8135 6.48256C46.0897 8.09022 46.877 11.3912 47.5261 11.9602C47.7112 12.1232 47.8631 12.0403 47.9543 11.811C48.3106 10.9022 47.9267 7.69797 47.6504 6.13727ZM45.7472 3.7534L46.7886 3.57385C47.0267 4.28505 47.225 5.00897 47.3825 5.74226L45.9323 5.99915C45.8299 5.25448 45.7681 4.50479 45.7472 3.7534ZM47.5841 11.7641C47.225 11.3387 46.4958 9.22 46.0013 6.4356L45.9488 6.18699L47.4073 5.9301C47.4239 6.0102 47.4377 6.09031 47.4543 6.17042C47.9349 8.90509 47.9819 11.1094 47.7996 11.695C47.7526 11.869 47.6836 11.8746 47.5841 11.7586V11.7641Z" fill="#3B29AB"/>
<path d="M39.1955 16.924L37.9028 15.518C38.295 14.9435 38.2121 14.623 37.3503 13.032C37.3379 12.7181 37.2426 12.4131 37.0741 12.148C36.9304 12.0044 36.0741 11.8967 34.5272 11.8248C34.1985 11.4657 34.2096 11.474 34.1819 11.463L33.1184 11.0155C33.1015 11.009 33.0831 11.0074 33.0653 11.0108C33.0475 11.0143 33.031 11.0227 33.0177 11.0351C33.0045 11.0475 32.995 11.0634 32.9903 11.0809C32.9857 11.0984 32.986 11.1169 32.9914 11.1343L33.3477 12.2392C33.3477 12.2696 33.3477 12.2392 33.7372 12.6784C33.461 13.2889 33.24 13.6341 33.24 13.8551C33.24 14.3496 33.3809 14.8496 33.3394 15.7694C33.2387 15.7738 33.1388 15.7886 33.0411 15.8136C33.0235 15.819 33.0074 15.8284 32.9941 15.8412C32.5853 16.3108 31.3368 17.6671 30.8395 18.3273C28.4363 14.833 27.6629 14.0651 26.0884 13.9076C26.0359 13.6314 25.9917 13.322 25.9586 13.0292C26.2956 13.0706 26.6989 13.0817 26.9475 12.8552C27.3811 12.4602 27.2403 11.4961 27.1519 9.91332C28.3341 9.12883 28.7651 5.86655 26.1602 6.0461C26.3895 3.2396 22.4256 2.78106 22.0858 5.09863C19.9367 3.64014 16.7988 6.08753 18.8539 7.83607C17.7076 8.08468 17.3954 9.55146 18.4948 9.74759C15.7325 11.9215 17.8954 16.1865 23.8924 12.8193C23.2412 13.3357 22.5544 13.8055 21.8372 14.2253C19.0562 14.7912 16.4003 15.8553 13.9978 17.366C11.7879 18.7472 11.6001 19.4737 11.3487 21.5647C11.1607 23.0307 11.0583 24.5065 11.0421 25.9844C11.039 26.0269 11.0445 26.0696 11.0583 26.1099C11.0721 26.1503 11.0938 26.1874 11.1222 26.2192C11.3419 26.4242 11.6261 26.5463 11.9261 26.5645C11.6333 26.791 11.1581 27.1169 11.0477 27.3932C10.893 27.7992 10.7908 28.0727 10.5836 28.5672C10.5366 28.6832 10.3902 29.0395 10.5836 29.1555C10.9095 29.3544 11.6885 28.4622 11.9178 28.1832C12.0242 28.0552 12.1698 27.9659 12.3321 27.9291C12.1802 28.2016 12.0747 28.4975 12.02 28.8047C11.481 29.0593 10.9063 29.2298 10.3156 29.3102C9.89853 29.3737 9.68584 29.4925 9.6886 29.6638C9.69136 29.835 9.88196 29.94 10.2024 29.9787C10.4369 29.9939 10.6722 29.9939 10.9068 29.9787C10.7963 30.0367 10.6913 30.0837 10.5919 30.1279C10.125 30.3212 9.86262 30.5726 9.92063 30.7632C9.94549 30.8405 10.0228 30.9206 10.2355 30.9206C10.7391 30.8522 11.2308 30.7146 11.6968 30.5118C11.5062 30.7162 11.3405 30.8764 11.172 31.0311C10.741 31.4344 10.5698 31.7659 10.6996 31.9427C10.8294 32.1195 11.1858 31.9896 11.3957 31.8681C11.8041 31.6288 12.1888 31.3513 12.5448 31.0394C12.4399 31.2733 12.3294 31.5053 12.2133 31.7355C11.9371 32.2548 11.8846 32.5642 12.0504 32.6747C12.2631 32.8183 12.6249 32.4924 12.799 32.288C13.4895 31.4593 14.6939 29.5257 14.8099 29.0809C14.8928 28.7798 14.8734 27.6142 14.8431 26.7357C15.3458 26.6998 15.6994 26.5148 15.7187 26.2662C15.7187 26.2385 15.7905 22.5895 15.9176 21.1863C17.0272 20.7613 18.1575 20.3926 19.3042 20.0814C19.4091 20.8382 19.4865 21.6172 19.5141 22.3216C18.1605 22.9533 17.1076 24.0894 16.5805 25.4872C15.3928 28.6279 15.8154 32.8598 16.0723 37.2877L8.18867 39.0584C7.75222 39.1412 7.61135 39.8097 7.65554 40.2766C7.41246 40.3373 6.57825 40.5528 6.36279 40.5997C5.68602 40.6218 5.58382 42.572 5.58105 43.7377C5.58105 45.5995 5.85728 48.2458 6.4567 48.8673C6.50841 48.9351 6.58391 48.9808 6.66798 48.9952C6.75205 49.0095 6.83844 48.9915 6.90972 48.9447C7.80747 48.5552 8.15552 47.011 8.35717 45.6603C8.41829 45.1811 8.51994 44.708 8.66102 44.246C8.7012 44.3561 8.77043 44.4532 8.86138 44.5272C8.95233 44.6011 9.06159 44.649 9.17757 44.6658C9.26597 44.6658 9.03117 44.6935 11.0117 44.2626C12.9923 43.8316 15.9397 43.1908 17.7158 42.6742C20.1577 41.9698 20.771 40.9395 21.3068 38.7462C21.6549 37.2933 22.8123 32.4206 23.0554 31.404C24.1852 31.7245 26.4309 32.473 28.0745 33.0393C28.1214 34.031 28.1076 39.8291 28.0745 41.956C28.0745 42.3787 28.6463 42.6107 29.0579 42.7019C29.0109 43.0389 28.8838 44.0581 28.8535 44.2764C28.6794 44.8896 30.3451 45.5691 31.7787 46.0332C32.6489 46.3094 36.8255 47.5193 36.7067 46.6188C36.7398 45.1962 33.9913 44.2101 32.8395 42.8455C33.1544 42.8206 33.5659 42.7129 33.5715 42.398V34.2382C33.5715 31.2576 33.3836 30.5146 31.2069 28.7136C29.2011 27.0977 27.1078 25.5937 24.9365 24.2082C25.384 22.7663 25.8564 21.4653 26.4226 20.0399C27.2845 21.2498 28.4584 22.8022 29.0551 23.3934C30.5025 24.8132 31.7235 24.5894 33.0162 23.0729C34.1489 21.7698 35.2049 20.402 36.1791 18.9764C36.1898 18.9631 36.1957 18.9466 36.1957 18.9295C36.2244 18.5821 36.1916 18.2324 36.099 17.8964C36.2288 17.6063 36.7813 17.0207 37.2039 16.4821L38.3447 17.7224C38.3962 17.778 38.4582 17.823 38.5271 17.8548C38.596 17.8865 38.6705 17.9043 38.7463 17.9073C38.8221 17.9102 38.8977 17.8982 38.9689 17.8719C39.04 17.8457 39.1053 17.8056 39.161 17.7541C39.2167 17.7026 39.2617 17.6406 39.2934 17.5717C39.3251 17.5028 39.343 17.4284 39.3459 17.3526C39.3489 17.2768 39.3369 17.2011 39.3106 17.13C39.2843 17.0588 39.2443 16.9935 39.1927 16.9379L39.1955 16.924ZM36.9304 12.2972C37.1625 12.5182 37.2287 13.7584 37.2508 14.1645V14.228C37.2523 14.252 37.2628 14.2745 37.2802 14.2909C37.2977 14.3073 37.3208 14.3165 37.3448 14.3164C37.3577 14.3164 37.3705 14.3138 37.3824 14.3088C37.3943 14.3038 37.4051 14.2964 37.4141 14.2871C37.4231 14.2779 37.4302 14.2669 37.4349 14.2548C37.4396 14.2428 37.4418 14.2299 37.4414 14.217C37.4276 13.996 37.4138 13.7888 37.3945 13.5458C38.0353 14.7501 38.0271 14.9904 37.7646 15.3744L36.2039 13.6783C36.226 13.4265 36.226 13.1733 36.2039 12.9215C36.2027 12.9014 36.1951 12.8822 36.1821 12.8668C36.1692 12.8514 36.1517 12.8405 36.1321 12.8358C35.9995 12.8027 35.7261 12.7557 35.3034 12.6894L34.7012 12.0375C36.2122 12.1149 36.8503 12.2226 36.9304 12.2972ZM25.9751 11.0707C25.9852 11.0546 25.9905 11.0359 25.9905 11.0169C25.9905 10.9978 25.9852 10.9792 25.9751 10.963C25.5083 10.3221 25.9254 9.87741 26.1215 10.3332C26.1851 10.4851 26.2707 10.5045 26.3287 10.4906C26.511 10.4547 26.5718 10.057 26.5884 9.82217C26.7141 9.84059 26.8367 9.8759 26.953 9.92714C27.0193 11.1094 27.1187 12.0292 26.953 12.4767C26.9309 12.5403 26.9171 12.59 26.837 12.6038C26.7569 12.6176 26.442 12.5624 25.8398 12.1259C25.8255 12.1155 25.8085 12.1093 25.7909 12.1081C25.7732 12.1069 25.7556 12.1107 25.74 12.1191C25.7244 12.1274 25.7115 12.14 25.7028 12.1554C25.694 12.1708 25.6898 12.1884 25.6906 12.206C25.716 12.7731 25.7788 13.3378 25.8785 13.8966C24.6994 13.8505 23.5187 13.9301 22.3565 14.1341C23.8316 13.2143 25.4917 11.8166 25.9751 11.0707ZM10.23 29.7909C9.98969 29.7605 9.89301 29.6831 9.88748 29.6638C9.88196 29.6444 9.93168 29.5616 10.3516 29.498C10.9761 29.4087 11.5828 29.2223 12.1498 28.9456C12.1646 28.9397 12.1776 28.9299 12.1873 28.9173C12.1971 28.9046 12.2032 28.8896 12.2051 28.8738C12.259 28.5291 12.3831 28.1991 12.5697 27.9042C12.667 27.9119 12.7613 27.9411 12.8459 27.9898C13.2658 28.2301 13.3597 28.8185 13.1056 29.6085C12.8129 29.4433 12.5435 29.2399 12.3045 29.0036C12.2869 28.9861 12.2631 28.9762 12.2382 28.9762C12.2134 28.9762 12.1895 28.9861 12.1719 29.0036C12.1628 29.0124 12.1556 29.0229 12.1506 29.0345C12.1457 29.0461 12.1431 29.0586 12.1431 29.0713C12.1431 29.0839 12.1457 29.0964 12.1506 29.108C12.1556 29.1197 12.1628 29.1302 12.1719 29.1389L12.1912 29.161C11.8515 29.3986 11.5753 29.5837 11.3377 29.7273C10.97 29.7887 10.5968 29.81 10.2245 29.7909H10.23ZM10.4786 30.6969C10.2024 30.7521 10.1223 30.7135 10.1112 30.6969C10.1002 30.6803 10.2328 30.4759 10.6637 30.2908C11.2503 30.0177 11.8059 29.6825 12.3211 29.2909C12.3901 29.3516 12.4647 29.4124 12.5393 29.4704C12.3321 29.7467 12.1553 29.9704 11.9868 30.161C11.5052 30.3989 10.9971 30.5788 10.4731 30.6969H10.4786ZM11.3073 31.7051C11.0311 31.8709 10.8764 31.8543 10.8598 31.8294C10.8432 31.8046 10.8598 31.5946 11.3073 31.172C11.8252 30.6917 12.2935 30.1605 12.705 29.5864C12.8128 29.661 12.926 29.7301 13.0393 29.7936C12.9481 30.0698 12.8487 30.3212 12.7409 30.5836C12.3096 31.0145 11.8272 31.3912 11.3045 31.7051H11.3073ZM14.6221 29.0174C14.5199 29.3876 13.3569 31.3101 12.647 32.1526C12.3874 32.4592 12.183 32.5228 12.1526 32.5034C12.1222 32.4841 12.0697 32.3874 12.3763 31.8101C12.7086 31.1537 12.9956 30.4754 13.2354 29.7798C13.7271 28.3987 13.1249 27.9401 12.926 27.8269C12.736 27.7237 12.5161 27.6899 12.3039 27.7312C12.0917 27.7725 11.9005 27.8864 11.7631 28.0534C11.1167 28.8323 10.7383 29.0091 10.6747 28.987C10.6747 28.987 10.6333 28.918 10.7521 28.6307C10.9372 28.1887 11.0477 27.8987 11.2189 27.4512C11.3515 27.1059 12.2962 26.6225 12.3736 26.3463C12.4242 26.1114 12.4437 25.8708 12.4316 25.6308C13.1588 25.5939 13.8878 25.6374 14.6055 25.7607C14.6359 26.1999 14.7353 28.6031 14.6304 29.0174H14.6221ZM17.1938 37.238C17.2181 37.2315 17.239 37.2157 17.2519 37.1941C17.2648 37.1724 17.2687 37.1465 17.2628 37.122C17.2603 37.1098 17.2552 37.0984 17.2481 37.0882C17.2409 37.0781 17.2317 37.0695 17.2211 37.063C17.2105 37.0566 17.1987 37.0523 17.1864 37.0506C17.1741 37.0489 17.1616 37.0497 17.1496 37.0529L16.2518 37.2546C15.9756 32.6996 15.5999 28.6086 16.749 25.5673C17.0142 24.8683 17.4174 24.23 17.9347 23.6904C18.4521 23.1508 19.0728 22.7209 19.76 22.4266C21.0351 21.8806 22.4191 21.6367 23.804 21.7139C21.9366 24.1613 20.5831 29.3102 19.2986 38.8402C16.0889 39.8456 11.3432 40.945 9.54496 41.3262C9.39303 40.6246 9.09194 39.5418 8.58368 39.1827C9.18862 39.0308 16.7325 37.3485 17.2021 37.238H17.1938ZM8.16933 45.6327C8.0174 46.6381 7.75499 47.9309 7.18043 48.522C7.70526 47.0221 7.37379 41.5693 6.62797 40.7323C7.13347 40.6108 7.73289 40.4561 9.01183 40.1578C9.34324 41.0809 9.53593 42.0481 9.58363 43.0278C8.50633 43.3676 8.33507 44.4973 8.16933 45.6327ZM34.0963 44.1603C35.0189 44.815 36.1736 45.5194 36.4387 46.2459C35.2869 45.2929 30.1213 43.7211 29.0551 44.0692C29.2264 42.7985 29.2153 42.746 29.3976 41.5251C30.3425 41.4939 31.2878 41.5709 32.2152 41.7544C32.2262 42.5472 32.5384 43.0499 34.0963 44.1603ZM31.0578 28.8489C33.0991 30.5477 33.356 31.1527 33.3532 34.2382V42.014C33.0549 41.7378 32.3422 41.4947 30.8092 41.3704C29.4722 41.2627 28.5993 41.3456 28.2485 41.6163C28.2844 39.2131 28.2927 33.694 28.2485 32.9509C28.2477 32.9323 28.2411 32.9143 28.2298 32.8995C28.2184 32.8847 28.2028 32.8737 28.185 32.8681C27.0359 32.4703 25.5718 31.9786 24.4034 31.6057C24.373 30.2991 24.315 27.3158 24.4034 26.0341C24.5636 25.4623 24.721 24.9292 24.8813 24.3961C27.0217 25.7664 29.0855 27.2529 31.0633 28.8489H31.0578ZM21.1135 38.6882C20.6246 40.7296 20.1273 41.7682 17.6661 42.4781C15.3541 43.1493 10.9869 44.0499 9.57258 44.373C9.94825 43.699 9.73556 42.2516 9.58639 41.4947C11.3985 41.1163 16.1966 40.0031 19.4147 38.9893C19.4318 38.9839 19.4471 38.9738 19.4588 38.9601C19.4705 38.9464 19.4782 38.9298 19.481 38.912C20.782 29.2439 22.1466 24.106 24.0388 21.7277C24.5323 21.7558 25.0232 21.8177 25.5083 21.9128C23.9587 26.2054 23.1023 30.3571 21.1107 38.6882H21.1135ZM36.0051 18.877C35.0397 20.2937 33.9928 21.6532 32.8698 22.9486C31.6379 24.3933 30.5412 24.5894 29.1849 23.258C28.312 22.3989 26.0608 19.2527 25.6216 18.5317C25.6097 18.514 25.5923 18.5007 25.5721 18.4938C25.5519 18.487 25.5299 18.4871 25.5098 18.494C25.4896 18.501 25.4723 18.5144 25.4605 18.5322C25.4488 18.55 25.4432 18.5712 25.4448 18.5925C25.5725 19.5872 25.6325 20.5895 25.6243 21.5923C25.605 21.6393 25.5884 21.6863 25.5718 21.7332C23.6078 21.3465 21.456 21.457 19.7019 22.2442C19.6329 20.7802 19.329 18.5593 18.8954 17.2279C18.8916 17.2161 18.8855 17.2051 18.8775 17.1957C18.8695 17.1862 18.8597 17.1784 18.8486 17.1728C18.8376 17.1671 18.8255 17.1637 18.8132 17.1627C18.8008 17.1618 18.7884 17.1633 18.7766 17.1671C18.7525 17.1753 18.7326 17.1927 18.7212 17.2154C18.7099 17.2382 18.7079 17.2645 18.7158 17.2887C18.8395 17.6836 18.9428 18.0847 19.0252 18.4903C18.3554 19.2464 17.6415 19.9621 16.8872 20.6338C16.4756 20.7719 16.0944 20.91 15.7988 21.0205C15.7823 21.027 15.7679 21.0379 15.7572 21.0521C15.7465 21.0662 15.7398 21.083 15.738 21.1006C15.6662 21.7802 15.5613 24.501 15.5364 25.9209C15.2948 25.7602 15.0217 25.6528 14.7353 25.606H14.7215C13.9564 25.443 11.8929 25.3104 11.2382 25.722C11.2636 24.3436 11.365 22.9678 11.5421 21.6006C11.7879 19.5317 11.9537 18.877 14.1 17.5373C17.6164 15.3274 21.6853 14.0816 25.2652 14.0816C27.5828 14.0816 28.0938 14.6341 31.287 19.33C31.2937 19.3404 31.3024 19.3494 31.3127 19.3563C31.3229 19.3632 31.3345 19.368 31.3466 19.3703C31.3588 19.3726 31.3713 19.3725 31.3833 19.3698C31.3954 19.3672 31.4068 19.3621 31.4169 19.3549C31.4379 19.3408 31.4526 19.319 31.4578 19.2942C31.4629 19.2694 31.4582 19.2436 31.4445 19.2223C31.2705 18.9681 31.1047 18.7251 30.9445 18.4958C31.4113 17.8909 32.6792 16.4959 33.1102 16.0097C33.7372 15.8606 34.5521 16.2169 35.0438 16.6285C35.3747 16.8969 35.6352 17.242 35.8027 17.6338C35.9702 18.0256 36.0396 18.4523 36.0051 18.877ZM36.0051 17.6395C35.7995 17.1322 35.4593 16.6906 35.0212 16.3625C34.583 16.0344 34.0636 15.8322 33.519 15.7777C33.5604 14.8385 33.4195 14.3441 33.4195 13.8607C33.4195 13.6645 33.7427 13.1673 34.0714 12.358C34.135 12.2033 34.2151 12.1453 34.2538 12.1591C34.3532 12.1867 34.4913 12.5016 34.3781 13.1314C34.1626 14.3523 34.9305 14.9573 35.5962 14.717L37.0768 16.3274C36.6873 16.8218 36.2316 17.3191 36.0189 17.6395H36.0051ZM34.5327 13.2944C34.5327 13.2502 34.5327 13.2087 34.5521 13.1646C34.6626 12.543 34.5521 12.0596 34.2924 11.974C34.2344 11.9574 34.0162 11.9298 33.8808 12.2861C33.8532 12.358 33.8228 12.427 33.7952 12.4933L33.519 12.1674L33.2427 11.2862L34.0991 11.6425L38.1873 16.1092C37.9423 16.2129 37.7417 16.3997 37.621 16.6368L34.5327 13.2944ZM37.7508 16.7915C37.796 16.6672 37.8694 16.555 37.9652 16.464C38.0611 16.3729 38.1768 16.3053 38.3033 16.2666L38.4469 16.4213C38.201 16.5232 37.9993 16.7092 37.8779 16.9461L37.7508 16.7915ZM39.0436 17.5953C39.0063 17.631 38.9622 17.6588 38.914 17.6771C38.8657 17.6954 38.8142 17.7037 38.7627 17.7016C38.7111 17.6996 38.6605 17.6871 38.6138 17.6651C38.5672 17.643 38.5254 17.6117 38.4911 17.5732L38.0547 17.0981C38.1022 16.9724 38.1784 16.8595 38.2772 16.7684C38.376 16.6773 38.4946 16.6105 38.6237 16.5732L39.0436 17.0428C39.081 17.0784 39.1108 17.1213 39.1312 17.1688C39.1516 17.2163 39.1621 17.2674 39.1621 17.3191C39.1621 17.3707 39.1516 17.4219 39.1312 17.4693C39.1108 17.5168 39.081 17.5597 39.0436 17.5953Z" fill="#3B29AB"/>
<path d="M45.2388 26.9043C43.768 26.9037 42.33 27.3394 41.1068 28.1561C39.8836 28.9729 38.93 30.1341 38.3668 31.4928C37.8035 32.8515 37.6559 34.3468 37.9425 35.7894C38.2291 37.2321 38.9371 38.5573 39.977 39.5975C41.0168 40.6378 42.3418 41.3463 43.7843 41.6334C45.2269 41.9206 46.7222 41.7735 48.0811 41.2107C49.4401 40.648 50.6016 39.6949 51.4188 38.472C52.236 37.249 52.6722 35.8112 52.6722 34.3404C52.6664 32.3705 51.8814 30.4829 50.4887 29.0897C49.0961 27.6965 47.2087 26.9108 45.2388 26.9043ZM45.2388 41.5859C43.9849 41.5854 42.7526 41.2596 41.6622 40.6403C40.5719 40.0211 39.6609 39.1296 39.0181 38.0529C42.797 35.6552 45.5261 31.8239 46.7139 27.2468C48.4694 27.6121 50.0271 28.6153 51.0858 30.0625C52.1445 31.5098 52.6289 33.2981 52.4454 35.0818C52.2619 36.8655 51.4236 38.5178 50.0924 39.7192C48.7613 40.9206 47.0319 41.5857 45.2388 41.5859Z" fill="#3B29AB"/>
</svg>
