<svg width="18" height="18" viewBox="0 0 18 18" fill="none" xmlns="http://www.w3.org/2000/svg">
<path fill-rule="evenodd" clip-rule="evenodd" d="M0.900048 9.90001H1.80005V11.7V16.2C1.80005 17.1927 2.60735 18 3.60005 18H6.30005H11.7H14.4C15.3927 18 16.2 17.1927 16.2 16.2V11.7V9.90001H17.1C17.4636 9.90001 17.793 9.68041 17.9316 9.34471C18.0711 9.00811 17.9937 8.62111 17.7363 8.36371L9.63635 0.263711C9.28445 -0.0881886 8.71565 -0.0881886 8.36375 0.263711L0.263748 8.36371C0.00634826 8.62111 -0.0710517 9.00811 0.0684483 9.34471C0.207048 9.68041 0.536448 9.90001 0.900048 9.90001ZM7.20005 16.2V11.7H10.8V16.2H7.20005ZM9.00046 2.17262L14.4005 7.57262V11.7L14.4014 16.2H12.6005V11.7C12.6005 10.7073 11.7932 9.90001 10.8005 9.90001H7.20046C6.20776 9.90001 5.40046 10.7073 5.40046 11.7V16.2H3.60046V11.7V9.00002V7.57262L9.00046 2.17262Z" fill="#8E9BAA"/>
</svg>
