<svg width="17" height="18" viewBox="0 0 17 18" fill="none" xmlns="http://www.w3.org/2000/svg">
<path fill-rule="evenodd" clip-rule="evenodd" d="M14.6861 10.4274V7.2C14.6861 4.3047 12.7196 1.8657 10.0556 1.1322C9.79193 0.468 9.14753 0 8.38613 0C7.62473 0 6.98033 0.468 6.71663 1.1322C4.05263 1.8666 2.08613 4.3047 2.08613 7.2V10.4274L0.549833 11.9637C0.380633 12.132 0.286133 12.3606 0.286133 12.6V14.4C0.286133 14.8977 0.688433 15.3 1.18613 15.3H15.5861C16.0838 15.3 16.4861 14.8977 16.4861 14.4V12.6C16.4861 12.3606 16.3916 12.132 16.2224 11.9637L14.6861 10.4274ZM14.6861 13.5H2.08613V12.9726L3.62243 11.4363C3.79163 11.268 3.88613 11.0394 3.88613 10.8V7.2C3.88613 4.7187 5.90483 2.7 8.38613 2.7C10.8674 2.7 12.8861 4.7187 12.8861 7.2V10.8C12.8861 11.0394 12.9806 11.268 13.1498 11.4363L14.6861 12.9726V13.5ZM8.38581 18C9.56571 18 10.5521 17.2494 10.922 16.2H5.84961C6.21951 17.2494 7.20591 18 8.38581 18Z" fill="#435971"/>
<path fill-rule="evenodd" clip-rule="evenodd" d="M14.6861 10.4274V7.2C14.6861 4.3047 12.7196 1.8657 10.0556 1.1322C9.79193 0.468 9.14753 0 8.38613 0C7.62473 0 6.98033 0.468 6.71663 1.1322C4.05263 1.8666 2.08613 4.3047 2.08613 7.2V10.4274L0.549833 11.9637C0.380633 12.132 0.286133 12.3606 0.286133 12.6V14.4C0.286133 14.8977 0.688433 15.3 1.18613 15.3H15.5861C16.0838 15.3 16.4861 14.8977 16.4861 14.4V12.6C16.4861 12.3606 16.3916 12.132 16.2224 11.9637L14.6861 10.4274ZM14.6861 13.5H2.08613V12.9726L3.62243 11.4363C3.79163 11.268 3.88613 11.0394 3.88613 10.8V7.2C3.88613 4.7187 5.90483 2.7 8.38613 2.7C10.8674 2.7 12.8861 4.7187 12.8861 7.2V10.8C12.8861 11.0394 12.9806 11.268 13.1498 11.4363L14.6861 12.9726V13.5ZM8.38581 18C9.56571 18 10.5521 17.2494 10.922 16.2H5.84961C6.21951 17.2494 7.20591 18 8.38581 18Z" fill="white" fill-opacity="0.2"/>
</svg>
